/* XPM */
const char * cut_xpm[] = {
"32 32 4 1",
" 	c None",
".	c #000000",
"+	c #FFFFFF",
"@	c #0000FF",
"................................",
".+++.++++++++++++++.+++++++++++.",
".+++.++++++++++++++.+++++++++++.",
".+++.++++++++++++++.+++++++++++.",
".++++++++++++++++++++++++++++++.",
".++++++++++++++++++++++++++++++.",
".@@@.@@+++++++@@@@@.@+++++++@@@.",
".+++.++@+++++@+++++.+@+++++@+++.",
".+++.++@+++++@+++++.+@+++++@+++.",
".+++++++@+++@++++++++@+++++@+++.",
".+++++++@+++@+++++++++@+++@++++.",
".+++.++++@+@+++++++.++@+++@++++.",
".+++.++++@+@+++++++.++@+++@++++.",
".+++.+++++@++++++++.+++@+@+++++.",
".++++++++++++++++++++++@+@+++++.",
".+++++++++++++++++++++++@++++++.",
".+++.++++++++++++++.+++++++++++.",
".+++.++++++++++++++.+++++++++++.",
".+++.++++++++++++++.+++++++++++.",
".++++++++++++++++++++++++++++++.",
".++++++++++++++++++++++++++++++.",
".+++.++++++++++++++.+++++++++++.",
".+++.++++++++++++++.+++++++++++.",
".+++.++++++++++++++.+++++++++++.",
".++++++++++++++++++++++++++++++.",
".++++++++++++++++++++++++++++++.",
".+++.++++++++++++++.+++++++++++.",
".+++.++++++++++++++.+++++++++++.",
".+++.++++++++++++++.+++++++++++.",
".++++++++++++++++++++++++++++++.",
".++++++++++++++++++++++++++++++.",
"................................"};
