/* XPM */
const char * fit_xpm[] = {
"32 32 6 1",
" 	c None",
".	c #000000",
"+	c #FFFFFF",
"@	c #FF0000",
"#	c #0C00F9",
"$	c #23D200",
"................................",
".++++++@++++++++@++++++++@+++++.",
".@+@@+@+@@+++++@+@@+++++@+@++@@.",
".+@++@++++@+++@++++@+++@+++@@++.",
".+++++++++@+++@++++@+++@+++++++.",
".++++++++++@+@+++++@+++@+++++++.",
".++++++++++@+@+++++@+++@+++++++.",
".+++++++++++@+++++++@+@++++++++.",
".+++++++++++++++++++@+@++++++++.",
".+++++++++++++++++++@+@++++++++.",
".+++++++++++++++++++@+@++++++++.",
".#########+++++####++@++#######.",
".+++++++++#+++#++++#+++#+++++++.",
".+++++++++#+++#++++#+++#+++++++.",
".++++++++++#+#+++++#+++#+++++++.",
".++++++++++#+#+++++#+++#+++++++.",
".+++++++++++#+++++++#+#++++++++.",
".+++++++++++++++++++#+#++++++++.",
".+++++++++++++++++++#+#++++++++.",
".+++++++++++++++++++#+#++++++++.",
".++++++++++++++++++++#+++++++++.",
".++++++++++++++++++++++++++++++.",
".++++++++++++++++++++++++++++++.",
".++++++$+++$++$+$++++$+++++++++.",
".$+$$+$+$$$+$++$+$$+$+$$+$$++$$.",
".+$++$+++++++$+++++$++++$++$$++.",
".++++++++++++++++++++++++++++++.",
".++++++++++++++++++++++++++++++.",
".++++++++++++++++++++++++++++++.",
".++++++++++++++++++++++++++++++.",
".++++++++++++++++++++++++++++++.",
"................................"};
