/* XPM */
const char * halir_xpm[] = {
"32 32 5 1",
" 	c None",
".	c #000000",
"+	c #FFFFFF",
"@	c #FF0000",
"#	c #F3F3F3",
"................................",
".++++++++++++++++++++++++++++++.",
".++++++++++++++++++++++++++++++.",
".++++++++++++++++++++++++++++++.",
".++++++++++++++++++++++++++++++.",
".++++++++++++++++++++++++++++++.",
".++++++++++++++++++++++++++++++.",
".++++++++++++++++++++++++++++++.",
".++++++++++++++++++++++++++++++.",
".++++++++++++++++++++++++++++++.",
".++++++++++++++++++++++++++++++.",
".++++++++++++++++++++++++++++++.",
".+++++++++++++++@@+++++++++++++.",
".++@@@+@@@+++++++@+@@@+@@@@@+++.",
".+++@++#@++++++++@++@+++@++@+++.",
".+++@+++@+++@@+++@++@+++@++@+++.",
".+++@@@@@+++++@++@++@+++@@@++++.",
".+++@+++@++@@@@++@++@+++@+@++++.",
".+++@+++@++@++@++@++@+++@++@+++.",
".++@@@+@@@+@@@@@@@@@@@+@@@++@++.",
".++++++++++++++++++++++++++++++.",
".++++++++++++++++++++++++++++++.",
".++++++++++++++++++++++++++++++.",
".++++++++++++++++++++++++++++++.",
".++++++++++++++++++++++++++++++.",
".++++++++++++++++++++++++++++++.",
".++++++++++++++++++++++++++++++.",
".++++++++++++++++++++++++++++++.",
".++++++++++++++++++++++++++++++.",
".++++++++++++++++++++++++++++++.",
".++++++++++++++++++++++++++++++.",
"................................"};
