/* XPM */
const char * sim_xpm[] = {
"32 32 6 1",
" 	c None",
".	c #000000",
"+	c #FFFFFF",
"@	c #FF0000",
"#	c #F3F3F3",
"$	c #0C00F9",
"................................",
".++++++++++++++++++++++++++++++.",
".++++++++++++++++++++++++++++++.",
".++++++++++++++++++++++++++++++.",
".++++++++++++++++++++++++++++++.",
".++++++++++++++++++++++++++++++.",
".++++++++++++++++++++++++++++++.",
".++++++++++++++++++++++++++++++.",
".@@@@@@@@@@@@@@@@@@@@@@@@@@@@@@.",
".++++++++++++++@@++++++++++++++.",
".++++++++++++++@@++++++++++++++.",
".++++++++++++++@@++++++++++++++.",
".++++++++++++++@@++++++++++++++.",
".++++++++++++++@@++++++++++++++.",
".++++++#+++++++@@++++++++++++++.",
".++++++++++++++@@++++++++++++++.",
".$$$$$$$$$$$+++@@+++$$$$$$$$$$$.",
".+++++++++++$++@@++$+++++++++++.",
".+++++++++++$++@@++$+++++++++++.",
".+++++++++++$++@@++$+++++++++++.",
".++++++++++++$+@@+$++++++++++++.",
".++++++++++++$++++$++++++++++++.",
".++++++++++++$++++$++++++++++++.",
".+++++++++++++$++$+++++++++++++.",
".+++++++++++++$++$+++++++++++++.",
".+++++++++++++$++$+++++++++++++.",
".++++++++++++++$$++++++++++++++.",
".++++++++++++++++++++++++++++++.",
".++++++++++++++++++++++++++++++.",
".++++++++++++++++++++++++++++++.",
".++++++++++++++++++++++++++++++.",
"................................"};
