/* XPM */
const char * stack_xpm[] = {
"32 32 6 1",
" 	c None",
".	c #000000",
"+	c #FFFFFF",
"@	c #FF0000",
"#	c #008000",
"$	c #0000FF",
"................................",
".++++++++++++++++++++++++++++++.",
".++++++++++++++++++++++++++++++.",
".++++++++++++++++++++++++++++++.",
".@@@@@@@@+++++@@@@@@@@@@@@@@@@@.",
".++++++++@+++@+++++++++++++++++.",
".++++++++@+++@+++++++++++++++++.",
".++++++++@+++@+++++++++++++++++.",
".+++++++++@+@++++++++++++++++++.",
".+++++++++@+@++++++++++++++++++.",
".++++++++++@+++++++++++++++++++.",
".++++++++++++++++++++++++++++++.",
".++++++++++++++++++++++++++++++.",
".########+++++#################.",
".++++++++#+++#+++++++++++++++++.",
".++++++++#+++#+++++++++++++++++.",
".+++++++++#+#++++++++++++++++++.",
".+++++++++#+#++++++++++++++++++.",
".++++++++++#+++++++++++++++++++.",
".++++++++++++++++++++++++++++++.",
".++++++++++++++++++++++++++++++.",
".$$$$$$$$+++++$$$$$$$$$$$$$$$$$.",
".++++++++$+++$+++++++++++++++++.",
".++++++++$+++$+++++++++++++++++.",
".++++++++$+++$+++++++++++++++++.",
".+++++++++$+$++++++++++++++++++.",
".+++++++++$+$++++++++++++++++++.",
".+++++++++$+$++++++++++++++++++.",
".++++++++++$+++++++++++++++++++.",
".++++++++++++++++++++++++++++++.",
".++++++++++++++++++++++++++++++.",
"................................"};
